<svg width="12" height="12" viewBox="0 0 7 6" fill="none" xmlns="http://www.w3.org/2000/svg">
<path d="M6.21119 2.64754H3.99193V0.428281C3.99193 0.364039 3.93937 0.311478 3.87512 0.311478H3.1743C3.11006 0.311478 3.0575 0.364039 3.0575 0.428281V2.64754H0.838239C0.773997 2.64754 0.721436 2.7001 0.721436 2.76435V3.46517C0.721436 3.52941 0.773997 3.58197 0.838239 3.58197H3.0575V5.80123C3.0575 5.86547 3.11006 5.91804 3.1743 5.91804H3.87512C3.93937 5.91804 3.99193 5.86547 3.99193 5.80123V3.58197H6.21119C6.27543 3.58197 6.32799 3.52941 6.32799 3.46517V2.76435C6.32799 2.7001 6.27543 2.64754 6.21119 2.64754Z" fill="#040415"/>
</svg>
