<svg width="27" height="28" viewBox="0 0 20 19" fill="none" xmlns="http://www.w3.org/2000/svg">
<path fill-rule="evenodd" clip-rule="evenodd" d="M4.19381 5.65186L4.74656 12.2262C4.78689 12.7322 5.20031 13.1117 5.70539 13.1117H5.70906H15.7108H15.7126C16.1902 13.1117 16.5981 12.756 16.666 12.2839L17.5368 6.27153C17.557 6.12853 17.5212 5.98553 17.4341 5.87003C17.348 5.75361 17.2215 5.67845 17.0785 5.65828C16.8869 5.66561 8.93664 5.65461 4.19381 5.65186V5.65186ZM5.70352 14.4867C4.49627 14.4867 3.47418 13.5444 3.3761 12.3389L2.53643 2.35278L1.15502 2.11445C0.780101 2.04845 0.529851 1.6937 0.594017 1.31878C0.660017 0.943863 1.0221 0.70003 1.38877 0.758696L3.29543 1.0887C3.60252 1.14278 3.83627 1.39761 3.86285 1.70928L4.07827 4.27686C17.1646 4.28236 17.2068 4.28878 17.27 4.29611C17.7806 4.37036 18.2298 4.63711 18.5359 5.04778C18.8421 5.45753 18.9704 5.96261 18.8971 6.46861L18.0272 12.4801C17.8631 13.6241 16.8694 14.4867 15.7144 14.4867H15.7099H5.71085H5.70352Z" fill="black"/>
<path fill-rule="evenodd" clip-rule="evenodd" d="M14.2402 9.04004H11.6992C11.3188 9.04004 11.0117 8.73204 11.0117 8.35254C11.0117 7.97304 11.3188 7.66504 11.6992 7.66504H14.2402C14.6197 7.66504 14.9277 7.97304 14.9277 8.35254C14.9277 8.73204 14.6197 9.04004 14.2402 9.04004" fill="black"/>
<mask id="mask0_223_488" style="mask-type:luminance" maskUnits="userSpaceOnUse" x="7" y="16" width="1" height="2">
<path fill-rule="evenodd" clip-rule="evenodd" d="M7 17.475C7 17.7518 7.22275 17.9755 7.5005 17.9755V17.9755C7.77642 17.9755 7.99917 17.7518 7.99917 17.475V17.475C7.99917 17.1991 7.77642 16.9763 7.5005 16.9763V16.9763C7.22275 16.9763 7 17.1991 7 17.475V17.475Z" fill="white"/>
</mask>
<g mask="url(#mask0_223_488)">
<path fill-rule="evenodd" clip-rule="evenodd" d="M2.41797 22.558H12.5829V12.3931H2.41797V22.558Z" fill="black"/>
</g>
<path fill-rule="evenodd" clip-rule="evenodd" d="M7.49857 17.2873C7.39498 17.2873 7.31065 17.3717 7.31065 17.4752C7.31065 17.6833 7.6874 17.6833 7.6874 17.4752C7.6874 17.3717 7.60215 17.2873 7.49857 17.2873M7.49867 18.6623C6.84417 18.6623 6.3125 18.1297 6.3125 17.4752C6.3125 16.8207 6.84417 16.2891 7.49867 16.2891C8.15317 16.2891 8.68575 16.8207 8.68575 17.4752C8.68575 18.1297 8.15317 18.6623 7.49867 18.6623" fill="black"/>
<path fill-rule="evenodd" clip-rule="evenodd" d="M17.8394 16.9766C18.1153 16.9766 18.339 17.1993 18.339 17.4752C18.339 17.7511 18.1153 17.9748 17.8394 17.9748C17.5626 17.9748 17.3398 17.7511 17.3398 17.4752C17.3398 17.1993 17.5626 16.9766 17.8394 16.9766" fill="black"/>
<mask id="mask1_223_488" style="mask-type:luminance" maskUnits="userSpaceOnUse" x="17" y="16" width="2" height="2">
<path fill-rule="evenodd" clip-rule="evenodd" d="M17.3398 17.475C17.3398 17.7518 17.5626 17.9755 17.8394 17.9755V17.9755C18.1144 17.9755 18.339 17.7518 18.339 17.475V17.475C18.339 17.1991 18.1144 16.9763 17.8394 16.9763V16.9763C17.5626 16.9763 17.3398 17.1991 17.3398 17.475V17.475Z" fill="white"/>
</mask>
<g mask="url(#mask1_223_488)">
<path fill-rule="evenodd" clip-rule="evenodd" d="M12.7559 22.558H22.9217V12.3931H12.7559V22.558Z" fill="black"/>
</g>
<path fill-rule="evenodd" clip-rule="evenodd" d="M17.8386 17.2873C17.7359 17.2873 17.6516 17.3716 17.6516 17.4752C17.6525 17.6851 18.0283 17.6833 18.0274 17.4752C18.0274 17.3716 17.9421 17.2873 17.8386 17.2873M17.8385 18.6623C17.184 18.6623 16.6523 18.1297 16.6523 17.4752C16.6523 16.8207 17.184 16.2891 17.8385 16.2891C18.4939 16.2891 19.0265 16.8207 19.0265 17.4752C19.0265 18.1297 18.4939 18.6623 17.8385 18.6623" fill="black"/>
</svg>
