<svg width="30" height="30" viewBox="0 0 23 24" fill="none" xmlns="http://www.w3.org/2000/svg">
<g opacity="0.2">
<path d="M8.00721 4.98053H7.83201C7.92837 4.98053 8.00721 4.90169 8.00721 4.80533V4.98053H14.665V4.80533C14.665 4.90169 14.7438 4.98053 14.8402 4.98053H14.665V6.55738H16.2418V4.80533C16.2418 4.03223 15.6133 3.40369 14.8402 3.40369H7.83201C7.05892 3.40369 6.43037 4.03223 6.43037 4.80533V6.55738H8.00721V4.98053ZM19.0451 6.55738H11.3361H3.62709C3.23945 6.55738 2.92627 6.87055 2.92627 7.25819V7.95901C2.92627 8.05538 3.00511 8.13422 3.10147 8.13422H4.42427L4.96522 19.5882C5.00026 20.3351 5.61786 20.9242 6.36467 20.9242H16.3075C17.0565 20.9242 17.672 20.3372 17.707 19.5882L18.2479 8.13422H19.5707C19.6671 8.13422 19.7459 8.05538 19.7459 7.95901V7.25819C19.7459 6.87055 19.4328 6.55738 19.0451 6.55738ZM16.1389 19.3473H6.5333L6.00331 8.13422H16.6689L16.1389 19.3473Z" fill="#FF0000"/>
</g>
</svg>
