<svg width="20" height="20" viewBox="0 0 20 20" fill="none" xmlns="http://www.w3.org/2000/svg">
<path fill-rule="evenodd" clip-rule="evenodd" d="M4.27418 5.99968L4.85206 12.8728C4.89423 13.4018 5.32643 13.7986 5.85448 13.7986H5.85831H16.3147H16.3166C16.8159 13.7986 17.2423 13.4268 17.3133 12.9332L18.2237 6.64751C18.2448 6.49801 18.2074 6.34852 18.1163 6.22776C18.0263 6.10606 17.894 6.02747 17.7445 6.00639C17.5442 6.01406 9.2326 6.00256 4.27418 5.99968ZM5.85248 15.2361C4.59036 15.2361 3.52182 14.2509 3.41927 12.9907L2.54144 2.55063L1.09723 2.30147C0.705275 2.23247 0.44365 1.86159 0.510733 1.46963C0.579733 1.07768 0.958275 0.822758 1.34161 0.884092L3.33494 1.22909C3.65598 1.28563 3.90036 1.55205 3.92815 1.87788L4.15336 4.56218C17.8345 4.56793 17.8786 4.57463 17.9447 4.5823C18.4785 4.65993 18.9481 4.9388 19.2682 5.36813C19.5883 5.79651 19.7224 6.32455 19.6458 6.85355L18.7363 13.1383C18.5648 14.3343 17.5259 15.2361 16.3184 15.2361H16.3136H5.86015H5.85248Z" fill="#FC003C"/>
<path fill-rule="evenodd" clip-rule="evenodd" d="M14.7773 9.54193H12.1208C11.7231 9.54193 11.4021 9.21993 11.4021 8.82318C11.4021 8.42643 11.7231 8.10443 12.1208 8.10443H14.7773C15.1741 8.10443 15.4961 8.42643 15.4961 8.82318C15.4961 9.21993 15.1741 9.54193 14.7773 9.54193Z" fill="#FC003C"/>
<mask id="mask0_290_1007" style="mask-type:luminance" maskUnits="userSpaceOnUse" x="7" y="17" width="2" height="2">
<path fill-rule="evenodd" clip-rule="evenodd" d="M7.20776 18.3603C7.20776 18.6497 7.44064 18.8835 7.73101 18.8835C8.01947 18.8835 8.25235 18.6497 8.25235 18.3603C8.25235 18.0718 8.01947 17.8389 7.73101 17.8389C7.44064 17.8389 7.20776 18.0718 7.20776 18.3603Z" fill="white"/>
</mask>
<g mask="url(#mask0_290_1007)">
<path fill-rule="evenodd" clip-rule="evenodd" d="M2.41699 23.6741H13.0439V13.0472H2.41699V23.6741Z" fill="#FC003C"/>
</g>
<path fill-rule="evenodd" clip-rule="evenodd" d="M7.72954 18.164C7.62124 18.164 7.53308 18.2522 7.53308 18.3605C7.53308 18.578 7.92695 18.578 7.92695 18.3605C7.92695 18.2522 7.83783 18.164 7.72954 18.164ZM7.72959 19.6016C7.04534 19.6016 6.4895 19.0448 6.4895 18.3606C6.4895 17.6763 7.04534 17.1205 7.72959 17.1205C8.41383 17.1205 8.97063 17.6763 8.97063 18.3606C8.97063 19.0448 8.41383 19.6016 7.72959 19.6016Z" fill="#FC003C"/>
<path fill-rule="evenodd" clip-rule="evenodd" d="M18.5408 17.8392C18.8293 17.8392 19.0631 18.0721 19.0631 18.3606C19.0631 18.649 18.8293 18.8829 18.5408 18.8829C18.2514 18.8829 18.0186 18.649 18.0186 18.3606C18.0186 18.0721 18.2514 17.8392 18.5408 17.8392Z" fill="#FC003C"/>
<mask id="mask1_290_1007" style="mask-type:luminance" maskUnits="userSpaceOnUse" x="18" y="17" width="2" height="2">
<path fill-rule="evenodd" clip-rule="evenodd" d="M18.0188 18.3603C18.0188 18.6497 18.2517 18.8835 18.5411 18.8835C18.8286 18.8835 19.0634 18.6497 19.0634 18.3603C19.0634 18.0718 18.8286 17.8389 18.5411 17.8389C18.2517 17.8389 18.0188 18.0718 18.0188 18.3603Z" fill="white"/>
</mask>
<g mask="url(#mask1_290_1007)">
<path fill-rule="evenodd" clip-rule="evenodd" d="M13.2271 23.6741H23.855V13.0472H13.2271V23.6741Z" fill="#FC003C"/>
</g>
<path fill-rule="evenodd" clip-rule="evenodd" d="M18.5395 18.1641C18.4322 18.1641 18.344 18.2523 18.344 18.3606C18.345 18.5801 18.7379 18.5781 18.737 18.3606C18.737 18.2523 18.6478 18.1641 18.5395 18.1641ZM18.5396 19.6016C17.8554 19.6016 17.2996 19.0448 17.2996 18.3606C17.2996 17.6763 17.8554 17.1205 18.5396 17.1205C19.2249 17.1205 19.7816 17.6763 19.7816 18.3606C19.7816 19.0448 19.2249 19.6016 18.5396 19.6016Z" fill="#FC003C"/>
</svg>
