<svg width="24" height="23" viewBox="0 0 24 23" fill="none" xmlns="http://www.w3.org/2000/svg">
<path fill-rule="evenodd" clip-rule="evenodd" d="M4.27406 7.99968L4.85194 14.8728C4.8941 15.4018 5.32631 15.7986 5.85435 15.7986H5.85819H16.3146H16.3165C16.8158 15.7986 17.2422 15.4268 17.3131 14.9332L18.2236 8.64751C18.2446 8.49801 18.2073 8.34852 18.1162 8.22776C18.0261 8.10606 17.8939 8.02747 17.7444 8.00639C17.5441 8.01406 9.23248 8.00256 4.27406 7.99968ZM5.85236 17.2361C4.59023 17.2361 3.52169 16.2509 3.41915 14.9907L2.54132 4.55063L1.09711 4.30147C0.705153 4.23247 0.443528 3.86159 0.510611 3.46963C0.579611 3.07768 0.958153 2.82276 1.34149 2.88409L3.33482 3.22909C3.65586 3.28563 3.90023 3.55205 3.92803 3.87788L4.15323 6.56218C17.8344 6.56793 17.8785 6.57463 17.9446 6.5823C18.4784 6.65993 18.948 6.9388 19.2681 7.36813C19.5881 7.79651 19.7223 8.32455 19.6456 8.85355L18.7362 15.1383C18.5646 16.3343 17.5258 17.2361 16.3183 17.2361H16.3135H5.86003H5.85236Z" fill="#9C9C9C"/>
<path fill-rule="evenodd" clip-rule="evenodd" d="M14.7772 11.542H12.1207C11.723 11.542 11.402 11.22 11.402 10.8232C11.402 10.4265 11.723 10.1045 12.1207 10.1045H14.7772C15.174 10.1045 15.496 10.4265 15.496 10.8232C15.496 11.22 15.174 11.542 14.7772 11.542Z" fill="#9C9C9C"/>
<mask id="mask0_8_1342" style="mask-type:luminance" maskUnits="userSpaceOnUse" x="7" y="19" width="2" height="2">
<path fill-rule="evenodd" clip-rule="evenodd" d="M7.20752 20.3603C7.20752 20.6497 7.44039 20.8836 7.73077 20.8836C8.01923 20.8836 8.2521 20.6497 8.2521 20.3603C8.2521 20.0719 8.01923 19.839 7.73077 19.839C7.44039 19.839 7.20752 20.0719 7.20752 20.3603Z" fill="white"/>
</mask>
<g mask="url(#mask0_8_1342)">
<path fill-rule="evenodd" clip-rule="evenodd" d="M2.41687 25.6742H13.0438V15.0472H2.41687V25.6742Z" fill="#9C9C9C"/>
</g>
<path fill-rule="evenodd" clip-rule="evenodd" d="M7.72929 20.164C7.621 20.164 7.53283 20.2522 7.53283 20.3605C7.53283 20.578 7.92671 20.578 7.92671 20.3605C7.92671 20.2522 7.83758 20.164 7.72929 20.164ZM7.72934 21.6016C7.04509 21.6016 6.48926 21.0448 6.48926 20.3606C6.48926 19.6763 7.04509 19.1205 7.72934 19.1205C8.41359 19.1205 8.97038 19.6763 8.97038 20.3606C8.97038 21.0448 8.41359 21.6016 7.72934 21.6016Z" fill="#9C9C9C"/>
<path fill-rule="evenodd" clip-rule="evenodd" d="M18.5406 19.8392C18.8291 19.8392 19.0629 20.0721 19.0629 20.3606C19.0629 20.649 18.8291 20.8829 18.5406 20.8829C18.2512 20.8829 18.0183 20.649 18.0183 20.3606C18.0183 20.0721 18.2512 19.8392 18.5406 19.8392Z" fill="#9C9C9C"/>
<mask id="mask1_8_1342" style="mask-type:luminance" maskUnits="userSpaceOnUse" x="18" y="19" width="2" height="2">
<path fill-rule="evenodd" clip-rule="evenodd" d="M18.0186 20.3603C18.0186 20.6497 18.2514 20.8836 18.5408 20.8836C18.8283 20.8836 19.0631 20.6497 19.0631 20.3603C19.0631 20.0719 18.8283 19.839 18.5408 19.839C18.2514 19.839 18.0186 20.0719 18.0186 20.3603Z" fill="white"/>
</mask>
<g mask="url(#mask1_8_1342)">
<path fill-rule="evenodd" clip-rule="evenodd" d="M13.2269 25.6742H23.8548V15.0472H13.2269V25.6742Z" fill="#9C9C9C"/>
</g>
<path fill-rule="evenodd" clip-rule="evenodd" d="M18.5395 20.1641C18.4322 20.1641 18.344 20.2523 18.344 20.3606C18.345 20.5801 18.7379 20.5781 18.737 20.3606C18.737 20.2523 18.6478 20.1641 18.5395 20.1641ZM18.5396 21.6016C17.8554 21.6016 17.2996 21.0448 17.2996 20.3606C17.2996 19.6763 17.8554 19.1205 18.5396 19.1205C19.2249 19.1205 19.7816 19.6763 19.7816 20.3606C19.7816 21.0448 19.2249 21.6016 18.5396 21.6016Z" fill="#9C9C9C"/>
</svg>
