<svg width="24" height="24" viewBox="0 0 24 24" fill="none" xmlns="http://www.w3.org/2000/svg">
<g clip-path="url(#clip0_290_613)">
<path opacity="0.964" fill-rule="evenodd" clip-rule="evenodd" d="M7.94531 1.24219C9.18722 1.16408 10.0544 1.69533 10.5469 2.83594C10.9815 4.03202 10.872 5.17266 10.2188 6.25781C9.43247 7.26994 8.45587 7.51214 7.28906 6.98438C6.35733 6.31641 5.88858 5.40235 5.88281 4.24219C5.88511 3.15186 6.30698 2.26905 7.14844 1.59375C7.4063 1.44897 7.67194 1.33178 7.94531 1.24219Z" fill="#FC003C"/>
<path opacity="0.963" fill-rule="evenodd" clip-rule="evenodd" d="M15.1641 1.2422C16.5023 1.16573 17.4008 1.75948 17.8594 3.02345C18.2419 4.23683 18.0701 5.36186 17.3438 6.39845C16.2308 7.53995 15.0902 7.57117 13.9219 6.4922C13.0896 5.3724 12.9177 4.15365 13.4063 2.83595C13.7575 2.04028 14.3434 1.50903 15.1641 1.2422Z" fill="#FC003C"/>
<path fill-rule="evenodd" clip-rule="evenodd" d="M8.13276 2.17969C8.9092 2.19789 9.4326 2.57289 9.70307 3.30469C10.0189 4.21535 9.89395 5.05908 9.32807 5.83594C8.54507 6.52191 7.84195 6.44377 7.2187 5.60156C6.75295 4.6942 6.75295 3.78797 7.2187 2.88281C7.43845 2.52935 7.74313 2.29497 8.13276 2.17969Z" fill="#FC003C"/>
<path fill-rule="evenodd" clip-rule="evenodd" d="M15.3515 2.17967C15.9429 2.15896 16.4038 2.39333 16.7343 2.88279C17.1298 3.63538 17.1923 4.41664 16.9218 5.22654C16.6411 5.98728 16.1021 6.33884 15.3046 6.28123C14.9657 6.15481 14.6923 5.94387 14.4843 5.64842C13.8883 4.56186 13.9665 3.53061 14.7187 2.55467C14.9147 2.39828 15.1257 2.27328 15.3515 2.17967Z" fill="#FC003C"/>
<path opacity="0.965" fill-rule="evenodd" clip-rule="evenodd" d="M-0.0234375 9.49219C-0.0234375 9.08592 -0.0234375 8.67971 -0.0234375 8.27344C0.128758 7.53956 0.472509 6.90675 1.00781 6.375C1.85379 5.77538 2.7288 5.7285 3.63281 6.23438C4.46187 6.91416 4.88377 7.79696 4.89844 8.88281C4.88377 9.96867 4.46187 10.8515 3.63281 11.5313C2.04849 12.2358 0.900056 11.7905 0.1875 10.1953C0.108752 9.95733 0.0384392 9.72296 -0.0234375 9.49219Z" fill="#FC003C"/>
<path opacity="0.964" fill-rule="evenodd" clip-rule="evenodd" d="M23.9766 8.27346C23.9766 8.67972 23.9766 9.08594 23.9766 9.49221C23.814 10.4351 23.3296 11.1617 22.5235 11.6719C21.0771 12.1584 20.0225 11.7131 19.3595 10.336C18.8733 9.05613 19.0139 7.85304 19.7813 6.72658C20.5414 5.85883 21.4554 5.6479 22.5235 6.09377C23.3296 6.60401 23.814 7.33057 23.9766 8.27346Z" fill="#FC003C"/>
<path fill-rule="evenodd" clip-rule="evenodd" d="M2.1328 6.82032C2.80336 6.76098 3.29555 7.02662 3.60936 7.6172C4.06692 8.59182 4.00441 9.52932 3.42186 10.4297C2.6651 11.1587 1.96197 11.1118 1.31249 10.2891C0.830296 9.41523 0.799045 8.5246 1.21874 7.6172C1.43182 7.23962 1.7365 6.97403 2.1328 6.82032Z" fill="#FC003C"/>
<path fill-rule="evenodd" clip-rule="evenodd" d="M21.2579 6.82033C21.7536 6.76933 22.1677 6.92556 22.5 7.28908C23.1717 8.25587 23.2186 9.2559 22.6407 10.2891C22.2007 10.9165 21.6305 11.0806 20.9297 10.7813C20.4499 10.4252 20.1608 9.94862 20.0625 9.35158C19.911 8.46259 20.1532 7.70476 20.7891 7.07814C20.9422 6.97829 21.0985 6.89237 21.2579 6.82033Z" fill="#FC003C"/>
<path opacity="0.968" fill-rule="evenodd" clip-rule="evenodd" d="M19.6172 20.1328C19.5937 19.9219 19.0547 20.0625 19.0547 20.0625C20.8328 16.7109 19.4809 15.0479 18.8906 14.3203C17.8359 13.3281 16.7812 12.3359 15.7266 11.3437C13.8418 9.91157 11.7949 9.63032 9.58593 10.5C8.86724 10.8438 8.22665 11.2969 7.66405 11.8594C6.81102 12.6968 5.94384 13.5171 5.06249 14.3203C3.77311 15.9642 3.61686 17.7142 4.59374 19.5703C5.82515 21.3874 7.52048 22.0671 9.67968 21.6094C10.4399 21.3858 11.0961 20.9952 11.6484 20.4375C11.864 20.2849 12.0827 20.2849 12.3047 20.4375C13.5861 21.6641 15.0861 22.0391 16.8047 21.5625C17.6951 21.2735 18.4451 20.7735 19.0547 20.0625C19.2511 20.0245 19.5703 19.9687 19.6172 20.1328C19.6172 20.1328 19.8031 20.5924 19.6406 20.8359C18.0607 22.5221 16.1467 23.0768 13.8984 22.5C13.1897 22.2863 12.5491 21.9504 11.9766 21.4922C10.4433 22.6597 8.74021 22.9957 6.86718 22.5C4.67415 21.7445 3.40071 20.2211 3.04687 17.9297C2.87888 16.3665 3.28513 14.9759 4.26562 13.7578C5.44682 12.6234 6.64213 11.5063 7.85155 10.4062C10.2321 8.77794 12.7165 8.60605 15.3047 9.89062C15.6613 10.1067 16.005 10.341 16.3359 10.5937C17.4531 11.6484 18.5703 12.7031 19.6875 13.7578C20.335 14.5608 22.0547 18.0937 19.6406 20.8359C19.6406 20.8359 19.7578 20.3437 19.6172 20.1328Z" fill="#FC003C"/>
</g>
<defs>
<clipPath id="clip0_290_613">
<rect width="24" height="24" fill="white"/>
</clipPath>
</defs>
</svg>
