<svg width="24" height="24" viewBox="0 0 24 24" fill="none" xmlns="http://www.w3.org/2000/svg">
<g clip-path="url(#clip0_125_223)">
<path opacity="0.964" fill-rule="evenodd" clip-rule="evenodd" d="M7.94531 1.24219C9.18722 1.16408 10.0544 1.69533 10.5469 2.83594C10.9815 4.03202 10.872 5.17266 10.2188 6.25781C9.43247 7.26994 8.45587 7.51214 7.28906 6.98438C6.35733 6.31641 5.88858 5.40235 5.88281 4.24219C5.88511 3.15186 6.30698 2.26905 7.14844 1.59375C7.4063 1.44897 7.67194 1.33178 7.94531 1.24219Z" fill="#08A500"/>
<path opacity="0.963" fill-rule="evenodd" clip-rule="evenodd" d="M15.1641 1.2422C16.5023 1.16573 17.4008 1.75948 17.8594 3.02345C18.2419 4.23683 18.0701 5.36186 17.3438 6.39845C16.2308 7.53995 15.0902 7.57117 13.9219 6.4922C13.0896 5.3724 12.9177 4.15365 13.4063 2.83595C13.7575 2.04028 14.3434 1.50903 15.1641 1.2422Z" fill="#08A500"/>
<path fill-rule="evenodd" clip-rule="evenodd" d="M8.133 2.17969C8.90944 2.19789 9.43285 2.57289 9.70332 3.30469C10.0192 4.21535 9.89419 5.05908 9.32832 5.83594C8.54532 6.52191 7.84219 6.44377 7.21894 5.60156C6.75319 4.6942 6.75319 3.78797 7.21894 2.88281C7.43869 2.52935 7.74338 2.29497 8.133 2.17969Z" fill="#08A500"/>
<path fill-rule="evenodd" clip-rule="evenodd" d="M15.3517 2.17967C15.9431 2.15896 16.4041 2.39333 16.7345 2.88279C17.13 3.63538 17.1925 4.41664 16.922 5.22654C16.6414 5.98728 16.1023 6.33884 15.3048 6.28123C14.966 6.15481 14.6925 5.94387 14.4845 5.64842C13.8886 4.56186 13.9667 3.53061 14.7189 2.55467C14.915 2.39828 15.1259 2.27328 15.3517 2.17967Z" fill="#08A500"/>
<path opacity="0.965" fill-rule="evenodd" clip-rule="evenodd" d="M-0.0234375 9.49219C-0.0234375 9.08592 -0.0234375 8.67971 -0.0234375 8.27344C0.128758 7.53956 0.472509 6.90675 1.00781 6.375C1.85379 5.77538 2.7288 5.7285 3.63281 6.23438C4.46187 6.91416 4.88377 7.79696 4.89844 8.88281C4.88377 9.96867 4.46187 10.8515 3.63281 11.5313C2.04849 12.2358 0.900056 11.7905 0.1875 10.1953C0.108752 9.95733 0.0384392 9.72296 -0.0234375 9.49219Z" fill="#08A500"/>
<path opacity="0.964" fill-rule="evenodd" clip-rule="evenodd" d="M23.9766 8.27346C23.9766 8.67972 23.9766 9.08594 23.9766 9.49221C23.814 10.4351 23.3296 11.1617 22.5235 11.6719C21.0771 12.1584 20.0225 11.7131 19.3595 10.336C18.8733 9.05613 19.0139 7.85304 19.7813 6.72658C20.5414 5.85883 21.4554 5.6479 22.5235 6.09377C23.3296 6.60401 23.814 7.33057 23.9766 8.27346Z" fill="#08A500"/>
<path fill-rule="evenodd" clip-rule="evenodd" d="M2.1328 6.82032C2.80336 6.76098 3.29555 7.02662 3.60936 7.6172C4.06692 8.59182 4.00441 9.52932 3.42186 10.4297C2.6651 11.1587 1.96197 11.1118 1.31249 10.2891C0.830296 9.41523 0.799045 8.5246 1.21874 7.6172C1.43182 7.23962 1.7365 6.97403 2.1328 6.82032Z" fill="#08A500"/>
<path fill-rule="evenodd" clip-rule="evenodd" d="M21.2576 6.82033C21.7534 6.76933 22.1674 6.92556 22.4998 7.28908C23.1715 8.25587 23.2183 9.2559 22.6404 10.2891C22.2005 10.9165 21.6302 11.0806 20.9295 10.7813C20.4496 10.4252 20.1606 9.94862 20.0623 9.35158C19.9108 8.46259 20.153 7.70476 20.7889 7.07814C20.942 6.97829 21.0982 6.89237 21.2576 6.82033Z" fill="#08A500"/>
<path opacity="0.968" fill-rule="evenodd" clip-rule="evenodd" d="M19.6174 20.1328C19.594 19.9219 19.0549 20.0625 19.0549 20.0625C20.8331 16.7109 19.4811 15.0479 18.8909 14.3203C17.8362 13.3281 16.7815 12.3359 15.7268 11.3437C13.842 9.91157 11.7951 9.63032 9.58617 10.5C8.86749 10.8438 8.22689 11.2969 7.6643 11.8594C6.81127 12.6968 5.94408 13.5171 5.06274 14.3203C3.77335 15.9642 3.6171 17.7142 4.59399 19.5703C5.82539 21.3874 7.52072 22.0671 9.67992 21.6094C10.4401 21.3858 11.0963 20.9952 11.6487 20.4375C11.8642 20.2849 12.0829 20.2849 12.3049 20.4375C13.5863 21.6641 15.0863 22.0391 16.8049 21.5625C17.6954 21.2735 18.4454 20.7735 19.0549 20.0625C19.2513 20.0245 19.5705 19.9687 19.6174 20.1328C19.6174 20.1328 19.8033 20.5924 19.6409 20.8359C18.061 22.5221 16.1469 23.0768 13.8987 22.5C13.19 22.2863 12.5493 21.9504 11.9768 21.4922C10.4436 22.6597 8.74045 22.9957 6.86742 22.5C4.6744 21.7445 3.40096 20.2211 3.04711 17.9297C2.87912 16.3665 3.28538 14.9759 4.26586 13.7578C5.44706 12.6234 6.64238 11.5063 7.8518 10.4062C10.2324 8.77794 12.7168 8.60605 15.3049 9.89062C15.6615 10.1067 16.0053 10.341 16.3362 10.5937C17.4533 11.6484 18.5706 12.7031 19.6877 13.7578C20.3352 14.5608 22.0549 18.0937 19.6409 20.8359C19.6409 20.8359 19.758 20.3437 19.6174 20.1328Z" fill="#08A500"/>
<path fill-rule="evenodd" clip-rule="evenodd" d="M20.4607 17.0391C20.4659 17.4152 20.4502 17.7902 20.4139 18.1641C19.8574 18.1845 19.6777 18.4501 19.8748 18.9609C19.9692 19.0171 20.0552 19.0795 20.1326 19.1484C19.9736 19.4821 19.8017 19.8103 19.617 20.1328C19.4384 20.048 19.2509 20.0245 19.0545 20.0625C18.4449 20.7735 17.6949 21.2735 16.8045 21.5625C15.0859 22.0391 13.5859 21.6641 12.3045 20.4375C12.0825 20.2849 11.8638 20.2849 11.6482 20.4375C11.0959 20.9952 10.4397 21.3858 9.67949 21.6094C7.52028 22.0671 5.82495 21.3874 4.59355 19.5703C3.61666 17.7142 3.77292 15.9642 5.0623 14.3203C5.94364 13.5172 6.81083 12.6968 7.66386 11.8594C8.22645 11.2969 8.86705 10.8438 9.58574 10.5C11.7947 9.63033 13.8416 9.91158 15.7264 11.3438C16.781 12.336 17.8357 13.3281 18.8904 14.3203C19.4807 15.0479 19.8557 15.8761 20.0154 16.8047C20.1225 16.9637 20.271 17.0418 20.4607 17.0391Z" fill="#08A500"/>
<path opacity="0.937" fill-rule="evenodd" clip-rule="evenodd" d="M20.4143 18.1641C20.8109 18.4273 20.8421 18.732 20.508 19.0781C20.3879 19.1287 20.2629 19.1521 20.133 19.1484C20.0556 19.0795 19.9696 19.017 19.8752 18.9609C19.6781 18.4501 19.8578 18.1845 20.4143 18.1641Z" fill="#08A500"/>
<path d="M19.8281 20.3906C19.7812 20.7891 19.5553 21 19.2188 21C18.8822 21 18.7031 20.5865 18.7031 20.25C18.7031 19.9135 18.976 19.6406 19.3125 19.6406C19.649 19.6406 19.8281 20.0541 19.8281 20.3906Z" fill="#08A500"/>
<path d="M19.7812 14.7188C19.7344 15.1172 20.3756 16.4531 20.0391 16.4531C19.7025 16.4531 18.6562 14.9147 18.6562 14.5781C18.6562 14.2416 18.9291 13.9688 19.2656 13.9688C19.6022 13.9688 19.7812 14.3822 19.7812 14.7188Z" fill="#08A500"/>
</g>
<defs>
<clipPath id="clip0_125_223">
<rect width="24" height="24" fill="white"/>
</clipPath>
</defs>
</svg>
