<svg width="23" height="24" viewBox="0 0 23 24" fill="none" xmlns="http://www.w3.org/2000/svg">
<path fill-rule="evenodd" clip-rule="evenodd" d="M3.77394 8.49968L4.35181 15.3728C4.39398 15.9018 4.82619 16.2986 5.35423 16.2986H5.35806H15.8144H15.8164C16.3156 16.2986 16.7421 15.9268 16.813 15.4332L17.7234 9.14751C17.7445 8.99801 17.7071 8.84852 17.6161 8.72776C17.526 8.60606 17.3938 8.52747 17.2443 8.50639C17.044 8.51406 8.73236 8.50256 3.77394 8.49968ZM5.35224 17.7361C4.09011 17.7361 3.02157 16.7509 2.91903 15.4907L2.0412 5.05063L0.596989 4.80147C0.205031 4.73247 -0.0565943 4.36159 0.010489 3.96963C0.079489 3.57768 0.458031 3.32276 0.841364 3.38409L2.8347 3.72909C3.15574 3.78563 3.40011 4.05205 3.4279 4.37788L3.65311 7.06218C17.3343 7.06793 17.3784 7.07463 17.4445 7.0823C17.9783 7.15993 18.4479 7.4388 18.7679 7.86813C19.088 8.29651 19.2222 8.82455 19.1455 9.35355L18.2361 15.6383C18.0645 16.8343 17.0257 17.7361 15.8182 17.7361H15.8134H5.3599H5.35224Z" fill="#08A500"/>
<path fill-rule="evenodd" clip-rule="evenodd" d="M14.2771 12.042H11.6206C11.2229 12.042 10.9019 11.72 10.9019 11.3232C10.9019 10.9265 11.2229 10.6045 11.6206 10.6045H14.2771C14.6739 10.6045 14.9959 10.9265 14.9959 11.3232C14.9959 11.72 14.6739 12.042 14.2771 12.042Z" fill="#08A500"/>
<mask id="mask0_109_1721" style="mask-type:luminance" maskUnits="userSpaceOnUse" x="6" y="20" width="2" height="2">
<path fill-rule="evenodd" clip-rule="evenodd" d="M6.70752 20.8603C6.70752 21.1497 6.94039 21.3836 7.23077 21.3836C7.51923 21.3836 7.7521 21.1497 7.7521 20.8603C7.7521 20.5719 7.51923 20.339 7.23077 20.339C6.94039 20.339 6.70752 20.5719 6.70752 20.8603Z" fill="white"/>
</mask>
<g mask="url(#mask0_109_1721)">
<path fill-rule="evenodd" clip-rule="evenodd" d="M1.91699 26.1742H12.5439V15.5472H1.91699V26.1742Z" fill="#08A500"/>
</g>
<path fill-rule="evenodd" clip-rule="evenodd" d="M7.22929 20.664C7.121 20.664 7.03283 20.7522 7.03283 20.8605C7.03283 21.078 7.42671 21.078 7.42671 20.8605C7.42671 20.7522 7.33758 20.664 7.22929 20.664ZM7.22934 22.1016C6.54509 22.1016 5.98926 21.5448 5.98926 20.8606C5.98926 20.1763 6.54509 19.6205 7.22934 19.6205C7.91359 19.6205 8.47038 20.1763 8.47038 20.8606C8.47038 21.5448 7.91359 22.1016 7.22934 22.1016Z" fill="#08A500"/>
<path fill-rule="evenodd" clip-rule="evenodd" d="M18.0404 20.3392C18.3288 20.3392 18.5626 20.5721 18.5626 20.8606C18.5626 21.149 18.3288 21.3829 18.0404 21.3829C17.7509 21.3829 17.5181 21.149 17.5181 20.8606C17.5181 20.5721 17.7509 20.3392 18.0404 20.3392Z" fill="#08A500"/>
<mask id="mask1_109_1721" style="mask-type:luminance" maskUnits="userSpaceOnUse" x="17" y="20" width="2" height="2">
<path fill-rule="evenodd" clip-rule="evenodd" d="M17.5186 20.8603C17.5186 21.1497 17.7514 21.3836 18.0408 21.3836C18.3283 21.3836 18.5631 21.1497 18.5631 20.8603C18.5631 20.5719 18.3283 20.339 18.0408 20.339C17.7514 20.339 17.5186 20.5719 17.5186 20.8603Z" fill="white"/>
</mask>
<g mask="url(#mask1_109_1721)">
<path fill-rule="evenodd" clip-rule="evenodd" d="M12.7271 26.1742H23.355V15.5472H12.7271V26.1742Z" fill="#08A500"/>
</g>
<path fill-rule="evenodd" clip-rule="evenodd" d="M18.0393 20.6641C17.932 20.6641 17.8438 20.7523 17.8438 20.8606C17.8448 21.0801 18.2377 21.0781 18.2367 20.8606C18.2367 20.7523 18.1476 20.6641 18.0393 20.6641ZM18.0394 22.1016C17.3551 22.1016 16.7993 21.5448 16.7993 20.8606C16.7993 20.1763 17.3551 19.6205 18.0394 19.6205C18.7246 19.6205 19.2814 20.1763 19.2814 20.8606C19.2814 21.5448 18.7246 22.1016 18.0394 22.1016Z" fill="#08A500"/>
</svg>
