<svg width="19" height="19" viewBox="0 0 19 19" fill="none" xmlns="http://www.w3.org/2000/svg">
<path opacity="0.954" fill-rule="evenodd" clip-rule="evenodd" d="M8.23524 0.0262097C10.8181 -0.183337 12.6783 0.863612 13.8161 3.16717C14.6458 5.54516 14.1317 7.57371 12.2736 9.25278C10.6519 10.4343 8.89445 10.6774 7.00129 9.98193C4.56873 8.75348 3.54977 6.78101 3.94447 4.06459C4.37433 2.34508 5.39329 1.1205 7.00129 0.390786C7.41113 0.238337 7.82249 0.116793 8.23524 0.0262097ZM8.9644 1.37234C10.5693 1.44968 11.7378 2.19751 12.4699 3.61588C13.1498 5.44897 12.7479 6.9914 11.264 8.24319C9.76831 9.25278 8.27265 9.25278 6.77694 8.24319C5.2188 6.90346 4.85422 5.28625 5.68321 3.39153C6.43065 2.1532 7.52438 1.48014 8.9644 1.37234Z" fill="#08A500"/>
<path opacity="0.95" fill-rule="evenodd" clip-rule="evenodd" d="M7.95468 12.1413C11.6065 11.9026 14.626 13.1553 17.013 15.8993C17.3447 16.357 17.6625 16.8243 17.9665 17.3015C18.1511 17.886 17.9455 18.2413 17.3495 18.3672C17.2018 18.3428 17.0616 18.2961 16.9289 18.227C16.01 16.6911 14.7761 15.4759 13.227 14.5812C10.4226 13.1229 7.61814 13.1229 4.81372 14.5812C3.26191 15.4599 2.0467 16.6751 1.16796 18.227C0.626086 18.5024 0.242816 18.3622 0.0181418 17.8063C-0.0184168 17.6327 0.000277542 17.4645 0.0742303 17.3015C1.8887 14.3511 4.51549 12.631 7.95468 12.1413Z" fill="#08A500"/>
</svg>
