<svg width="25" height="24" viewBox="0 0 25 24" fill="none" xmlns="http://www.w3.org/2000/svg">
<g clip-path="url(#clip0_109_1567)">
<path opacity="0.944" fill-rule="evenodd" clip-rule="evenodd" d="M9.94541 -0.0234375C10.1954 -0.0234375 10.4454 -0.0234375 10.6954 -0.0234375C11.4014 0.253531 11.8311 0.769158 11.9845 1.52344C12.1523 2.33357 12.0117 3.08357 11.5626 3.77344C11.0265 4.40826 10.3781 4.5567 9.61729 4.21875C8.79041 3.56713 8.47007 2.71557 8.65635 1.66406C8.78437 0.858033 9.21407 0.295533 9.94541 -0.0234375ZM10.1798 0.960938C10.4254 0.915863 10.6207 0.993989 10.7657 1.19531C11.1312 1.78523 11.1625 2.3946 10.8595 3.02344C10.5703 3.48221 10.2421 3.51346 9.8751 3.11719C9.53155 2.49045 9.53155 1.86545 9.8751 1.24219C9.9718 1.13746 10.0733 1.04371 10.1798 0.960938Z" fill="#9A9A9A"/>
<path opacity="0.945" fill-rule="evenodd" clip-rule="evenodd" d="M14.2576 -0.0234375C14.5076 -0.0234375 14.7576 -0.0234375 15.0076 -0.0234375C15.7389 0.295533 16.1686 0.858033 16.2966 1.66406C16.4829 2.71557 16.1626 3.56713 15.3357 4.21875C14.2513 4.58684 13.4935 4.23528 13.0623 3.16406C12.8115 2.37962 12.8584 1.614 13.2029 0.867188C13.4511 0.438698 13.8026 0.141823 14.2576 -0.0234375ZM14.4451 0.960938C14.7834 0.931402 15.0256 1.07203 15.1716 1.38281C15.3904 1.91406 15.3904 2.44531 15.1716 2.97656C14.8281 3.51705 14.4688 3.53268 14.0935 3.02344C13.7904 2.39543 13.8217 1.78605 14.1873 1.19531C14.2684 1.10616 14.3543 1.02803 14.4451 0.960938Z" fill="#9A9A9A"/>
<path opacity="0.942" fill-rule="evenodd" clip-rule="evenodd" d="M6.52332 3.07031C7.6771 3.23169 8.3724 3.88794 8.60926 5.03906C8.69523 5.54662 8.60148 6.01537 8.32801 6.44531C7.95578 6.85697 7.49485 7.00537 6.9452 6.89062C6.1606 6.65292 5.63715 6.14508 5.37488 5.36719C5.18037 4.76667 5.22723 4.18857 5.51551 3.63281C5.77192 3.29004 6.10787 3.10254 6.52332 3.07031ZM6.5702 4.05469C7.3314 4.3108 7.68296 4.84205 7.62488 5.64844C7.5437 5.8883 7.37963 5.97422 7.1327 5.90625C6.48348 5.58459 6.1944 5.06114 6.26551 4.33594C6.33282 4.19804 6.4344 4.10429 6.5702 4.05469Z" fill="#9A9A9A"/>
<path opacity="0.942" fill-rule="evenodd" clip-rule="evenodd" d="M18.2891 3.07031C19.0245 3.11063 19.4855 3.48563 19.6719 4.19531C19.7928 5.24016 19.4257 6.06047 18.5703 6.65625C18.1287 6.91772 17.66 6.98025 17.1641 6.84375C16.5769 6.55275 16.2956 6.07617 16.3203 5.41406C16.3757 4.4355 16.8288 3.70893 17.6797 3.23438C17.8841 3.16018 18.0872 3.10549 18.2891 3.07031ZM18.1485 4.10156C18.533 4.04078 18.7205 4.20484 18.711 4.59375C18.6822 5.21391 18.3853 5.65144 17.8203 5.90625C17.5734 5.97422 17.4093 5.8883 17.3282 5.64844C17.2813 4.96073 17.5547 4.44511 18.1485 4.10156Z" fill="#9A9A9A"/>
<path opacity="0.943" fill-rule="evenodd" clip-rule="evenodd" d="M12.383 4.61719C12.816 4.62772 13.2066 4.76053 13.5549 5.01562C14.3432 5.66752 15.1401 6.30811 15.9455 6.9375C16.8424 7.96744 17.0221 9.11588 16.4846 10.3828C15.9134 11.4458 15.0306 11.8754 13.8362 11.6719C13.3828 11.5077 12.9297 11.3436 12.4768 11.1797C12.0239 11.3436 11.5708 11.5077 11.1174 11.6719C9.45873 11.8426 8.48219 11.1004 8.18772 9.44531C8.07775 8.47847 8.35117 7.64255 9.00803 6.9375C9.81349 6.30811 10.6104 5.66752 11.3987 5.01562C11.7002 4.80187 12.0283 4.66908 12.383 4.61719ZM12.4299 5.60156C12.6222 5.62228 12.7941 5.69259 12.9455 5.8125C13.6351 6.39281 14.3382 6.95531 15.0549 7.5C15.8673 8.24981 16.0157 9.117 15.5002 10.1016C15.2033 10.582 14.7737 10.793 14.2112 10.7344C13.819 10.6401 13.444 10.4995 13.0862 10.3125C12.6799 10.1563 12.2737 10.1563 11.8674 10.3125C11.453 10.5314 11.0155 10.6798 10.5549 10.7578C9.83702 10.6574 9.3917 10.2511 9.21897 9.53906C9.03353 8.72034 9.26013 8.04066 9.89866 7.5C10.6153 6.95531 11.3185 6.39281 12.008 5.8125C12.1404 5.71505 12.281 5.64473 12.4299 5.60156Z" fill="#9A9A9A"/>
<path opacity="0.946" fill-rule="evenodd" clip-rule="evenodd" d="M9.99237 23.9766C9.67985 23.9766 9.36738 23.9766 9.05487 23.9766C8.77334 23.792 8.70303 23.542 8.84393 23.2266C8.90084 23.1539 8.97115 23.0993 9.05487 23.0625C9.25798 23.0469 9.46113 23.0312 9.66424 23.0156C9.74998 23.0028 9.82029 22.9637 9.87518 22.8984C9.9132 22.3806 9.90537 21.865 9.85174 21.3516C9.82714 21.3191 9.79587 21.2957 9.75799 21.2812C8.02362 21.25 6.28924 21.25 4.55487 21.2812C4.51699 21.2957 4.48574 21.3191 4.46112 21.3516C4.4075 21.865 4.39969 22.3806 4.43768 22.8984C4.49258 22.9637 4.56289 23.0028 4.64862 23.0156C4.85174 23.0312 5.05487 23.0469 5.25799 23.0625C5.63042 23.367 5.63042 23.6717 5.25799 23.9766C4.94549 23.9766 4.633 23.9766 4.32049 23.9766C3.93897 23.8532 3.66554 23.6032 3.50018 23.2266C3.44873 22.8621 3.42529 22.495 3.42987 22.125C3.42529 21.755 3.44873 21.3878 3.50018 21.0234C3.6638 20.6411 3.94505 20.3911 4.34393 20.2734C4.48775 19.583 4.3315 18.9736 3.87518 18.4453C3.18634 17.7408 2.48321 17.0533 1.76581 16.3828C1.15908 15.6279 0.940335 14.7685 1.10956 13.8047C1.35126 11.6137 1.61688 9.42618 1.90643 7.24218C2.29015 6.3276 2.96983 5.97604 3.94549 6.18749C4.71985 6.51018 5.10267 7.09612 5.09393 7.9453C5.13647 9.24402 5.20676 10.5409 5.30487 11.8359C5.84431 11.7247 6.32867 11.8419 6.75799 12.1875C7.47031 12.8841 8.1656 13.5951 8.84393 14.3203C9.47328 15.0637 9.83262 15.9231 9.92206 16.8984C9.93767 18.0234 9.95332 19.1484 9.96893 20.2734C10.4427 20.4191 10.7396 20.7316 10.8596 21.2109C10.9032 21.8854 10.8875 22.5573 10.8127 23.2266C10.6485 23.6019 10.3751 23.8519 9.99237 23.9766ZM3.33612 7.10155C3.87462 7.1443 4.13244 7.44116 4.10956 7.99218C4.16837 9.44648 4.23868 10.8996 4.32049 12.3516C3.99126 12.874 3.90533 13.4365 4.06268 14.0391C4.15242 14.2657 4.27742 14.4689 4.43768 14.6484C5.07336 15.3155 5.73743 15.9483 6.42987 16.5469C6.9454 16.6094 7.15634 16.3828 7.06268 15.8672C6.42345 15.181 5.7672 14.5092 5.09393 13.8516C4.84845 13.2644 5.03595 12.905 5.65643 12.7734C5.82298 12.7821 5.97138 12.8367 6.10174 12.9375C6.84687 13.6513 7.55778 14.3934 8.23456 15.1641C8.63726 15.6727 8.87163 16.2509 8.93768 16.8984C8.96112 18.0233 8.96895 19.1483 8.96112 20.2734C7.75798 20.2734 6.55488 20.2734 5.35174 20.2734C5.4417 19.5776 5.32451 18.9213 5.00018 18.3047C4.80408 18.0065 4.58534 17.7252 4.34393 17.4609C3.75018 16.8984 3.15643 16.3359 2.56268 15.7734C2.10024 15.229 1.94399 14.604 2.09393 13.8984C2.33173 11.8676 2.56611 9.83634 2.79706 7.80468C2.83049 7.45171 3.01017 7.21734 3.33612 7.10155Z" fill="#9A9A9A"/>
<path opacity="0.946" fill-rule="evenodd" clip-rule="evenodd" d="M20.633 23.9765C20.2892 23.9765 19.9454 23.9765 19.6017 23.9765C19.3288 23.79 19.2585 23.5401 19.3908 23.2265C19.4477 23.1539 19.518 23.0992 19.6017 23.0625C19.8361 23.0468 20.0705 23.0312 20.3048 23.0156C20.3906 23.0028 20.4609 22.9637 20.5158 22.8984C20.5538 22.3806 20.546 21.8649 20.4923 21.3515C20.4677 21.3191 20.4365 21.2956 20.3986 21.2812C18.6642 21.2499 16.9298 21.2499 15.1955 21.2812C15.1576 21.2956 15.1263 21.3191 15.1017 21.3515C15.0481 21.8649 15.0403 22.3806 15.0783 22.8984C15.1332 22.9637 15.2035 23.0028 15.2892 23.0156C15.4923 23.0312 15.6955 23.0468 15.8986 23.0625C16.1576 23.1993 16.2435 23.4102 16.1564 23.6953C16.0926 23.8135 16.0067 23.9073 15.8986 23.9765C15.5861 23.9765 15.2736 23.9765 14.9611 23.9765C14.5796 23.8531 14.3061 23.6032 14.1408 23.2265C14.0659 22.5572 14.0503 21.8854 14.0939 21.2109C14.2138 20.7315 14.5107 20.419 14.9845 20.2734C15.0001 19.1328 15.0158 17.9921 15.0314 16.8515C15.127 15.8922 15.4863 15.0485 16.1095 14.3203C16.8035 13.5794 17.5144 12.8528 18.2423 12.1406C18.6682 11.8382 19.1369 11.7367 19.6486 11.8359C19.7467 10.5409 19.817 9.24398 19.8595 7.94526C19.9474 6.62217 20.6427 6.03623 21.9455 6.18745C22.4802 6.36281 22.8474 6.71437 23.047 7.24214C23.3366 9.42614 23.6022 11.6137 23.8439 13.8046C24.0109 14.7678 23.7921 15.6271 23.1876 16.3828C22.4038 17.104 21.6539 17.854 20.9376 18.6328C20.6036 19.1304 20.4942 19.6773 20.6095 20.2734C21.0084 20.391 21.2897 20.641 21.4533 21.0234C21.5047 21.3878 21.5282 21.755 21.5236 22.125C21.5282 22.4949 21.5047 22.8621 21.4533 23.2265C21.2879 23.6032 21.0145 23.8531 20.633 23.9765ZM21.3361 7.10151C21.8184 7.09162 22.0919 7.326 22.1564 7.80464C22.3908 9.83587 22.6251 11.8672 22.8595 13.8984C23.0095 14.604 22.8532 15.229 22.3908 15.7734C21.7814 16.3515 21.172 16.9297 20.5626 17.5078C20.3481 17.765 20.145 18.0306 19.9533 18.3046C19.6289 18.921 19.5117 19.5773 19.6017 20.2734C18.3986 20.2734 17.1955 20.2734 15.9923 20.2734C15.9845 19.1326 15.9923 17.992 16.0158 16.8515C16.0955 16.2235 16.3299 15.661 16.7189 15.164C17.3957 14.3934 18.1066 13.6512 18.8517 12.9375C19.3246 12.6576 19.6919 12.7592 19.9533 13.2421C19.9892 13.434 19.9736 13.6215 19.9064 13.8046C19.2175 14.4779 18.5457 15.1654 17.8908 15.8671C17.7971 16.3828 18.0081 16.6093 18.5236 16.5468C19.216 15.9482 19.8801 15.3154 20.5158 14.6484C20.9194 14.1904 21.06 13.6591 20.9376 13.0546C20.8609 12.8077 20.7594 12.5733 20.633 12.3515C20.7148 10.8996 20.7851 9.44643 20.8439 7.99214C20.8229 7.58559 20.9869 7.28873 21.3361 7.10151Z" fill="#9A9A9A"/>
<path opacity="0.898" fill-rule="evenodd" clip-rule="evenodd" d="M7.36708 23.9765C7.22645 23.9765 7.08583 23.9765 6.9452 23.9765C6.61529 23.7229 6.58403 23.4338 6.85145 23.1093C7.47395 22.935 7.71615 23.1616 7.57801 23.789C7.51253 23.8626 7.44222 23.9251 7.36708 23.9765Z" fill="#9A9A9A"/>
<path opacity="0.899" fill-rule="evenodd" clip-rule="evenodd" d="M18.0077 23.9765C17.8671 23.9765 17.7265 23.9765 17.5858 23.9765C17.2559 23.7229 17.2247 23.4338 17.4921 23.1093C18.1146 22.935 18.3568 23.1616 18.2186 23.789C18.1532 23.8626 18.0828 23.9251 18.0077 23.9765Z" fill="#9A9A9A"/>
</g>
<defs>
<clipPath id="clip0_109_1567">
<rect width="24" height="24" fill="white" transform="translate(0.5)"/>
</clipPath>
</defs>
</svg>
