<svg width="24" height="24" viewBox="0 0 24 24" fill="none" xmlns="http://www.w3.org/2000/svg">
<g clip-path="url(#clip0_8_1260)">
<path opacity="0.964" fill-rule="evenodd" clip-rule="evenodd" d="M7.94531 1.24213C9.18722 1.16402 10.0544 1.69527 10.5469 2.83588C10.9815 4.03196 10.872 5.1726 10.2188 6.25775C9.43247 7.26988 8.45587 7.51208 7.28906 6.98432C6.35733 6.31635 5.88858 5.40229 5.88281 4.24213C5.88511 3.1518 6.30698 2.26899 7.14844 1.59369C7.4063 1.44891 7.67194 1.33172 7.94531 1.24213Z" fill="#9A9A9A"/>
<path opacity="0.963" fill-rule="evenodd" clip-rule="evenodd" d="M15.164 1.24214C16.5022 1.16567 17.4007 1.75942 17.8593 3.02339C18.2418 4.23677 18.0699 5.36179 17.3437 6.39839C16.2307 7.53989 15.0901 7.57111 13.9218 6.49214C13.0895 5.37234 12.9176 4.15359 13.4062 2.83589C13.7573 2.04022 14.3433 1.50897 15.164 1.24214Z" fill="#9A9A9A"/>
<path fill-rule="evenodd" clip-rule="evenodd" d="M8.13276 2.17969C8.9092 2.19789 9.4326 2.57289 9.70307 3.30469C10.0189 4.21535 9.89395 5.05908 9.32807 5.83594C8.54507 6.52191 7.84195 6.44377 7.2187 5.60156C6.75295 4.6942 6.75295 3.78797 7.2187 2.88281C7.43845 2.52935 7.74313 2.29497 8.13276 2.17969Z" fill="#9A9A9A"/>
<path fill-rule="evenodd" clip-rule="evenodd" d="M15.3516 2.17973C15.943 2.15902 16.4039 2.39339 16.7344 2.88285C17.1299 3.63544 17.1924 4.4167 16.9219 5.2266C16.6413 5.98734 16.1022 6.3389 15.3047 6.28129C14.9659 6.15487 14.6924 5.94393 14.4844 5.64848C13.8884 4.56192 13.9666 3.53067 14.7188 2.55473C14.9149 2.39834 15.1258 2.27334 15.3516 2.17973Z" fill="#9A9A9A"/>
<path opacity="0.965" fill-rule="evenodd" clip-rule="evenodd" d="M-0.0234375 9.49213C-0.0234375 9.08586 -0.0234375 8.67964 -0.0234375 8.27338C0.128758 7.5395 0.472509 6.90669 1.00781 6.37494C1.85379 5.77532 2.7288 5.72844 3.63281 6.23432C4.46187 6.9141 4.88377 7.79689 4.89844 8.88275C4.88377 9.96861 4.46187 10.8514 3.63281 11.5312C2.04849 12.2358 0.900056 11.7905 0.1875 10.1953C0.108752 9.95727 0.0384392 9.72289 -0.0234375 9.49213Z" fill="#9A9A9A"/>
<path opacity="0.964" fill-rule="evenodd" clip-rule="evenodd" d="M23.9765 8.2734C23.9765 8.67966 23.9765 9.08588 23.9765 9.49215C23.8139 10.435 23.3295 11.1616 22.5234 11.6718C21.077 12.1584 20.0223 11.713 19.3593 10.3359C18.8732 9.05607 19.0138 7.85298 19.7812 6.72652C20.5412 5.85877 21.4553 5.64783 22.5234 6.09371C23.3295 6.60394 23.8139 7.33051 23.9765 8.2734Z" fill="#9A9A9A"/>
<path fill-rule="evenodd" clip-rule="evenodd" d="M2.1328 6.82026C2.80336 6.76092 3.29555 7.02656 3.60936 7.61714C4.06692 8.59176 4.00441 9.52926 3.42186 10.4296C2.6651 11.1586 1.96197 11.1117 1.31249 10.289C0.830296 9.41517 0.799045 8.52454 1.21874 7.61714C1.43182 7.23956 1.7365 6.97396 2.1328 6.82026Z" fill="#9A9A9A"/>
<path fill-rule="evenodd" clip-rule="evenodd" d="M21.2579 6.82033C21.7536 6.76933 22.1677 6.92556 22.5 7.28908C23.1717 8.25587 23.2186 9.2559 22.6407 10.2891C22.2007 10.9165 21.6305 11.0806 20.9297 10.7813C20.4499 10.4252 20.1608 9.94862 20.0625 9.35158C19.911 8.46259 20.1532 7.70476 20.7891 7.07814C20.9422 6.97829 21.0985 6.89237 21.2579 6.82033Z" fill="#9A9A9A"/>
<path opacity="0.968" fill-rule="evenodd" clip-rule="evenodd" d="M19.6172 20.1328C19.5937 19.9219 19.0547 20.0625 19.0547 20.0625C20.8328 16.7109 19.4809 15.0479 18.8906 14.3203C17.8359 13.3281 16.7812 12.3359 15.7266 11.3437C13.8418 9.91157 11.7949 9.63032 9.58593 10.5C8.86724 10.8438 8.22665 11.2969 7.66405 11.8594C6.81102 12.6968 5.94384 13.5171 5.06249 14.3203C3.77311 15.9642 3.61686 17.7142 4.59374 19.5703C5.82515 21.3874 7.52048 22.0671 9.67968 21.6094C10.4399 21.3858 11.0961 20.9952 11.6484 20.4375C11.864 20.2849 12.0827 20.2849 12.3047 20.4375C13.5861 21.6641 15.0861 22.0391 16.8047 21.5625C17.6951 21.2735 18.4451 20.7735 19.0547 20.0625C19.2511 20.0245 19.5703 19.9687 19.6172 20.1328C19.6172 20.1328 19.8031 20.5924 19.6406 20.8359C18.0607 22.5221 16.1467 23.0768 13.8984 22.5C13.1897 22.2863 12.5491 21.9504 11.9766 21.4922C10.4433 22.6597 8.74021 22.9957 6.86718 22.5C4.67415 21.7445 3.40071 20.2211 3.04687 17.9297C2.87888 16.3665 3.28513 14.9759 4.26562 13.7578C5.44682 12.6234 6.64213 11.5063 7.85155 10.4062C10.2321 8.77794 12.7165 8.60605 15.3047 9.89062C15.6613 10.1067 16.005 10.341 16.3359 10.5937C17.4531 11.6484 18.5703 12.7031 19.6875 13.7578C20.335 14.5608 22.0547 18.0937 19.6406 20.8359C19.6406 20.8359 19.7578 20.3437 19.6172 20.1328Z" fill="#9A9A9A"/>
<path fill-rule="evenodd" clip-rule="evenodd" d="M20.461 17.039C20.4661 17.4152 20.4505 17.7902 20.4141 18.164C19.8576 18.1844 19.6779 18.45 19.875 18.9609C19.9695 19.017 20.0555 19.0795 20.1329 19.1484C19.9738 19.4821 19.8019 19.8102 19.6172 20.1328C19.4386 20.0479 19.2511 20.0245 19.0547 20.0624C18.4452 20.7734 17.6952 21.2735 16.8047 21.5624C15.0861 22.039 13.5861 21.664 12.3047 20.4374C12.0827 20.2848 11.864 20.2848 11.6485 20.4374C11.0962 20.9952 10.4399 21.3858 9.67973 21.6093C7.52053 22.0671 5.8252 21.3874 4.59379 19.5703C3.61691 17.7141 3.77316 15.9642 5.06254 14.3203C5.94389 13.5171 6.81107 12.6968 7.6641 11.8593C8.2267 11.2969 8.86729 10.8438 9.58598 10.4999C11.7949 9.63027 13.8418 9.91152 15.7266 11.3437C16.7813 12.3359 17.836 13.3281 18.8907 14.3203C19.4809 15.0478 19.8559 15.876 20.0157 16.8046C20.1228 16.9636 20.2712 17.0418 20.461 17.039Z" fill="#9A9A9A"/>
<path opacity="0.937" fill-rule="evenodd" clip-rule="evenodd" d="M20.414 18.1641C20.8106 18.4273 20.8418 18.732 20.5078 19.0781C20.3876 19.1287 20.2626 19.1521 20.1328 19.1484C20.0554 19.0795 19.9694 19.017 19.8749 18.9609C19.6778 18.4501 19.8575 18.1845 20.414 18.1641Z" fill="#9A9A9A"/>
<path d="M19.8281 20.3906C19.7812 20.7891 19.5553 21 19.2188 21C18.8822 21 18.7031 20.5865 18.7031 20.25C18.7031 19.9135 18.976 19.6406 19.3125 19.6406C19.649 19.6406 19.8281 20.0541 19.8281 20.3906Z" fill="#9A9A9A"/>
<path d="M19.7812 14.7188C19.7344 15.1172 20.3756 16.4531 20.0391 16.4531C19.7025 16.4531 18.6562 14.9147 18.6562 14.5781C18.6562 14.2416 18.9291 13.9688 19.2656 13.9688C19.6022 13.9688 19.7812 14.3822 19.7812 14.7188Z" fill="#9A9A9A"/>
</g>
<defs>
<clipPath id="clip0_8_1260">
<rect width="24" height="24" fill="white"/>
</clipPath>
</defs>
</svg>
