<svg width="25" height="24" viewBox="0 0 25 24" fill="none" xmlns="http://www.w3.org/2000/svg">
<path opacity="0.954" fill-rule="evenodd" clip-rule="evenodd" d="M11.2352 3.02621C13.8181 2.81666 15.6783 3.86361 16.8161 6.16717C17.6458 8.54516 17.1317 10.5737 15.2736 12.2528C13.6519 13.4343 11.8945 13.6774 10.0013 12.9819C7.56873 11.7535 6.54977 9.78101 6.94447 7.06459C7.37433 5.34508 8.39329 4.1205 10.0013 3.39079C10.4111 3.23834 10.8225 3.11679 11.2352 3.02621ZM11.9644 4.37234C13.5693 4.44968 14.7378 5.19751 15.4699 6.61588C16.1498 8.44897 15.7479 9.9914 14.264 11.2432C12.7683 12.2528 11.2727 12.2528 9.77694 11.2432C8.2188 9.90346 7.85422 8.28625 8.68321 6.39153C9.43065 5.1532 10.5244 4.48014 11.9644 4.37234Z" fill="#9A9A9A"/>
<path opacity="0.95" fill-rule="evenodd" clip-rule="evenodd" d="M10.9547 15.1413C14.6065 14.9026 17.626 16.1553 20.013 18.8993C20.3447 19.357 20.6625 19.8243 20.9665 20.3015C21.1511 20.886 20.9455 21.2413 20.3495 21.3672C20.2018 21.3428 20.0616 21.2961 19.9289 21.227C19.01 19.6911 17.7761 18.4759 16.227 17.5812C13.4226 16.1229 10.6181 16.1229 7.81372 17.5812C6.26191 18.4599 5.0467 19.6751 4.16796 21.227C3.62609 21.5024 3.24282 21.3622 3.01814 20.8063C2.98158 20.6327 3.00028 20.4645 3.07423 20.3015C4.8887 17.3511 7.51549 15.631 10.9547 15.1413Z" fill="#9A9A9A"/>
</svg>
