<svg width="24" height="24" viewBox="0 0 24 24" fill="none" xmlns="http://www.w3.org/2000/svg">
<path opacity="0.954" fill-rule="evenodd" clip-rule="evenodd" d="M10.7352 3.02621C13.3181 2.81666 15.1783 3.86361 16.3161 6.16717C17.1458 8.54516 16.6317 10.5737 14.7736 12.2528C13.1519 13.4343 11.3945 13.6774 9.50129 12.9819C7.06873 11.7535 6.04977 9.78101 6.44447 7.06459C6.87433 5.34508 7.89329 4.1205 9.50129 3.39079C9.91113 3.23834 10.3225 3.11679 10.7352 3.02621ZM11.4644 4.37234C13.0693 4.44968 14.2378 5.19751 14.9699 6.61588C15.6498 8.44897 15.2479 9.9914 13.764 11.2432C12.2683 12.2528 10.7727 12.2528 9.27694 11.2432C7.7188 9.90346 7.35422 8.28625 8.18321 6.39153C8.93065 5.1532 10.0244 4.48014 11.4644 4.37234Z" fill="#FC003C"/>
<path opacity="0.95" fill-rule="evenodd" clip-rule="evenodd" d="M10.4547 15.1413C14.1065 14.9026 17.126 16.1553 19.513 18.8993C19.8447 19.357 20.1625 19.8243 20.4665 20.3015C20.6511 20.886 20.4455 21.2413 19.8495 21.3672C19.7018 21.3428 19.5616 21.2961 19.4289 21.227C18.51 19.6911 17.2761 18.4759 15.727 17.5812C12.9226 16.1229 10.1181 16.1229 7.31372 17.5812C5.76191 18.4599 4.5467 19.6751 3.66796 21.227C3.12609 21.5024 2.74282 21.3622 2.51814 20.8063C2.48158 20.6327 2.50028 20.4645 2.57423 20.3015C4.3887 17.3511 7.01549 15.631 10.4547 15.1413Z" fill="#FC003C"/>
</svg>
