<svg width="12" height="15" viewBox="0 0 7 12" fill="none" xmlns="http://www.w3.org/2000/svg">
<path d="M2.31673 6L5.89173 9.575C6.05979 9.74305 6.14382 9.95694 6.14382 10.2167C6.14382 10.4764 6.05979 10.6903 5.89173 10.8583C5.72368 11.0264 5.50979 11.1104 5.25007 11.1104C4.99034 11.1104 4.77645 11.0264 4.6084 10.8583L0.391732 6.64167C0.300065 6.55 0.235135 6.45069 0.19694 6.34375C0.158746 6.2368 0.139648 6.12222 0.139648 6C0.139648 5.87778 0.158746 5.76319 0.19694 5.65625C0.235135 5.5493 0.300065 5.45 0.391732 5.35833L4.6084 1.14167C4.77645 0.973609 4.99034 0.889582 5.25007 0.889582C5.50979 0.889582 5.72368 0.973609 5.89173 1.14167C6.05979 1.30972 6.14382 1.52361 6.14382 1.78333C6.14382 2.04305 6.05979 2.25694 5.89173 2.425L2.31673 6Z" fill="#1C1B1F"/>
</svg>
