<svg width="32" height="33" viewBox="0 0 29 28" fill="none" xmlns="http://www.w3.org/2000/svg">
<path fill-rule="evenodd" clip-rule="evenodd" d="M4.97716 10.1162L5.65194 18.1419C5.70118 18.7597 6.20587 19.2229 6.82246 19.2229H6.82693H19.0368H19.039C19.622 19.2229 20.12 18.7888 20.2028 18.2124L21.2659 10.8727C21.2905 10.6981 21.2469 10.5235 21.1406 10.3825C21.0354 10.2404 20.881 10.1486 20.7064 10.124C20.4725 10.133 10.7671 10.1195 4.97716 10.1162ZM6.82009 20.9015C5.34632 20.9015 4.09859 19.7511 3.97885 18.2796L2.95381 6.08876L1.26741 5.79781C0.809726 5.71724 0.504228 5.28417 0.58256 4.82648C0.663131 4.3688 1.10515 4.07113 1.55277 4.14275L3.88037 4.5456C4.25525 4.61163 4.54061 4.92272 4.57306 5.30319L4.83603 8.43763C20.8115 8.44434 20.8629 8.45218 20.9401 8.46113C21.5634 8.55177 22.1118 8.87741 22.4855 9.37874C22.8593 9.87895 23.016 10.4955 22.9264 11.1133L21.8645 18.4519C21.6642 19.8485 20.4511 20.9015 19.0411 20.9015H19.0355H6.82904H6.82009Z" fill="black"/>
<path fill-rule="evenodd" clip-rule="evenodd" d="M17.2416 14.2525H14.1396C13.6752 14.2525 13.3003 13.8765 13.3003 13.4132C13.3003 12.9499 13.6752 12.5739 14.1396 12.5739H17.2416C17.7048 12.5739 18.0808 12.9499 18.0808 13.4132C18.0808 13.8765 17.7048 14.2525 17.2416 14.2525Z" fill="black"/>
<mask id="mask0_8_751" style="mask-type:luminance" maskUnits="userSpaceOnUse" x="8" y="23" width="2" height="3">
<path fill-rule="evenodd" clip-rule="evenodd" d="M8.40259 24.5496C8.40259 24.8875 8.67451 25.1606 9.01358 25.1606C9.35042 25.1606 9.62234 24.8875 9.62234 24.5496C9.62234 24.2128 9.35042 23.9408 9.01358 23.9408C8.67451 23.9408 8.40259 24.2128 8.40259 24.5496Z" fill="white"/>
</mask>
<g mask="url(#mask0_8_751)">
<path fill-rule="evenodd" clip-rule="evenodd" d="M2.80859 30.7547H15.2176V18.3456H2.80859V30.7547Z" fill="black"/>
</g>
<path fill-rule="evenodd" clip-rule="evenodd" d="M9.01181 24.3205C8.88536 24.3205 8.78241 24.4235 8.78241 24.5499C8.78241 24.804 9.24233 24.804 9.24233 24.5499C9.24233 24.4235 9.13826 24.3205 9.01181 24.3205ZM9.012 25.9991C8.21301 25.9991 7.56396 25.3489 7.56396 24.5499C7.56396 23.7509 8.21301 23.1019 9.012 23.1019C9.811 23.1019 10.4612 23.7509 10.4612 24.5499C10.4612 25.3489 9.811 25.9991 9.012 25.9991Z" fill="black"/>
<path fill-rule="evenodd" clip-rule="evenodd" d="M21.636 23.9413C21.9728 23.9413 22.2459 24.2132 22.2459 24.55C22.2459 24.8869 21.9728 25.1599 21.636 25.1599C21.298 25.1599 21.0261 24.8869 21.0261 24.55C21.0261 24.2132 21.298 23.9413 21.636 23.9413Z" fill="black"/>
<mask id="mask1_8_751" style="mask-type:luminance" maskUnits="userSpaceOnUse" x="21" y="23" width="2" height="3">
<path fill-rule="evenodd" clip-rule="evenodd" d="M21.0264 24.5496C21.0264 24.8875 21.2983 25.1606 21.6362 25.1606C21.972 25.1606 22.2461 24.8875 22.2461 24.5496C22.2461 24.2128 21.972 23.9408 21.6362 23.9408C21.2983 23.9408 21.0264 24.2128 21.0264 24.5496Z" fill="white"/>
</mask>
<g mask="url(#mask1_8_751)">
<path fill-rule="evenodd" clip-rule="evenodd" d="M15.4314 30.7547H27.8416V18.3456H15.4314V30.7547Z" fill="black"/>
</g>
<path fill-rule="evenodd" clip-rule="evenodd" d="M21.6349 24.3205C21.5095 24.3205 21.4066 24.4235 21.4066 24.5499C21.4077 24.8062 21.8665 24.804 21.8654 24.5499C21.8654 24.4235 21.7613 24.3205 21.6349 24.3205ZM21.635 25.9991C20.8361 25.9991 20.187 25.3489 20.187 24.5499C20.187 23.7509 20.8361 23.1019 21.635 23.1019C22.4352 23.1019 23.0853 23.7509 23.0853 24.5499C23.0853 25.3489 22.4352 25.9991 21.635 25.9991Z" fill="black"/>
<ellipse cx="22.5743" cy="7.11229" rx="6.33728" ry="6.33728" fill="#FC003C"/>
<path d="M21.1275 5.11001V4.09952H23.0153V9.80998H21.8873V5.11001H21.1275Z" fill="white"/>
</svg>
