<svg width="19" height="18" viewBox="0 0 19 18" fill="none" xmlns="http://www.w3.org/2000/svg">
<path d="M13.6038 1.66848C13.8158 1.45654 14.0674 1.28843 14.3443 1.17373C14.6212 1.05903 14.918 1 15.2177 1C15.5174 1 15.8142 1.05903 16.0911 1.17373C16.368 1.28843 16.6196 1.45654 16.8315 1.66848C17.0435 1.88041 17.2116 2.13201 17.3263 2.40891C17.441 2.68582 17.5 2.9826 17.5 3.28232C17.5 3.58204 17.441 3.87882 17.3263 4.15573C17.2116 4.43263 17.0435 4.68423 16.8315 4.89617L5.93807 15.7896L1.5 17L2.71038 12.5619L13.6038 1.66848Z" stroke="white" stroke-width="1.31125" stroke-linecap="round" stroke-linejoin="round"/>
</svg>
